<svg id="Traditional" xmlns="http://www.w3.org/2000/svg" viewBox="0 0 13 16"><defs><style>.cls-1{fill:#fff;}</style></defs><title>rad-pointer</title><rect x="12" y="10" width="1" height="1"/><rect x="12" y="9" width="1" height="1"/><rect x="12" y="8" width="1" height="1"/><rect x="12" y="7" width="1" height="1"/><rect x="12" y="6" width="1" height="1"/><rect x="12" y="5" width="1" height="1"/><rect x="12" y="4" width="1" height="1"/><rect x="12" y="3" width="1" height="1"/><rect x="12" y="2" width="1" height="1"/><rect x="11" y="12" width="1" height="1"/><rect x="11" y="11" width="1" height="1"/><path class="cls-1" d="M12,10v1H11v2H10V9H9v4h1v2H9V14H8v1H4V14H3V13H2V12H1V8H2V9H3V1H5V7H6V5H8V7H9V5h1V7h1V2h1v8ZM8,13V9H7v4ZM6,13V9H5v4Z" transform="translate(0 0)"/><rect x="11" y="1" width="1" height="1"/><rect x="10" y="15" width="1" height="1"/><rect x="10" y="14" width="1" height="1"/><rect x="10" y="13" width="1" height="1"/><rect x="10" y="6" width="1" height="1"/><rect x="10" y="5" width="1" height="1"/><rect x="10" y="4" width="1" height="1"/><rect x="10" y="3" width="1" height="1"/><rect x="10" y="2" width="1" height="1"/><rect x="10" y="1" width="1" height="1"/><rect x="9" y="15" width="1" height="1"/><rect x="9" y="12" width="1" height="1"/><rect x="9" y="11" width="1" height="1"/><rect x="9" y="10" width="1" height="1"/><rect x="9" y="9" width="1" height="1"/><rect x="9" y="4" width="1" height="1"/><rect x="8" y="14" width="1" height="1"/><rect x="8" y="6" width="1" height="1"/><rect x="8" y="5" width="1" height="1"/><rect x="8" y="4" width="1" height="1"/><rect x="7" y="15" width="1" height="1"/><rect x="7" y="12" width="1" height="1"/><rect x="7" y="11" width="1" height="1"/><rect x="7" y="10" width="1" height="1"/><rect x="7" y="9" width="1" height="1"/><rect x="7" y="4" width="1" height="1"/><rect x="6" y="15" width="1" height="1"/><rect x="6" y="4" width="1" height="1"/><rect x="5" y="15" width="1" height="1"/><rect x="5" y="12" width="1" height="1"/><rect x="5" y="11" width="1" height="1"/><rect x="5" y="10" width="1" height="1"/><rect x="5" y="9" width="1" height="1"/><rect x="5" y="6" width="1" height="1"/><rect x="5" y="5" width="1" height="1"/><rect x="5" y="4" width="1" height="1"/><rect x="5" y="3" width="1" height="1"/><rect x="5" y="2" width="1" height="1"/><rect x="5" y="1" width="1" height="1"/><rect x="4" y="15" width="1" height="1"/><rect x="4" width="1" height="1"/><rect x="3" y="15" width="1" height="1"/><rect x="3" y="14" width="1" height="1"/><rect x="3" width="1" height="1"/><rect x="2" y="13" width="1" height="1"/><rect x="2" y="8" width="1" height="1"/><rect x="2" y="7" width="1" height="1"/><rect x="2" y="6" width="1" height="1"/><rect x="2" y="5" width="1" height="1"/><rect x="2" y="4" width="1" height="1"/><rect x="2" y="3" width="1" height="1"/><rect x="2" y="2" width="1" height="1"/><rect x="2" y="1" width="1" height="1"/><rect x="1" y="12" width="1" height="1"/><rect x="1" y="7" width="1" height="1"/><rect y="11" width="1" height="1"/><rect y="10" width="1" height="1"/><rect y="9" width="1" height="1"/><rect y="8" width="1" height="1"/></svg>